<svg xmlns="http://www.w3.org/2000/svg" viewBox="0 0 32 32" width="32" height="32">
  <!-- SAP Blue Background -->
  <rect width="32" height="32" fill="#003366" rx="6"/>
  
  <!-- SAP Logo - Simplified -->
  <g fill="#ffffff">
    <!-- S -->
    <rect x="6" y="8" width="4" height="2"/>
    <rect x="6" y="14" width="4" height="2"/>
    <rect x="6" y="20" width="4" height="2"/>
    <rect x="10" y="10" width="4" height="2"/>
    <rect x="10" y="16" width="4" height="2"/>
    
    <!-- A -->
    <rect x="16" y="8" width="4" height="2"/>
    <rect x="16" y="14" width="4" height="2"/>
    <rect x="16" y="20" width="4" height="2"/>
    <rect x="18" y="10" width="2" height="2"/>
    <rect x="18" y="16" width="2" height="2"/>
    
    <!-- P -->
    <rect x="22" y="8" width="4" height="2"/>
    <rect x="22" y="14" width="4" height="2"/>
    <rect x="22" y="20" width="4" height="2"/>
    <rect x="26" y="10" width="2" height="2"/>
    <rect x="26" y="16" width="2" height="2"/>
  </g>
  
  <!-- SAP Orange accent dot -->
  <circle cx="26" cy="6" r="1.5" fill="#FF6600"/>
</svg>
